<svg xmlns="http://www.w3.org/2000/svg" width="412.37" height="163.29" viewBox="0 0 412.37 163.29"><defs><style>.cls-1{fill:#fff;}.cls-2{fill:none;}</style></defs><title>Iron_1</title><g id="Layer_2" data-name="Layer 2"><g id="Layer_1-2" data-name="Layer 1"><path class="cls-1" d="M105.53,72.81,118,71l.7-6.32H78.2L78.9,71l12.45,1.86a1.54,1.54,0,0,1,1.3,1.52V89a1.54,1.54,0,0,1-1.3,1.52L78.9,92.33l-.7,6.33h40.48l-.7-6.33-12.45-1.85a1.54,1.54,0,0,1-1.3-1.52V74.33A1.54,1.54,0,0,1,105.53,72.81Z"/><path class="cls-1" d="M141.38,52.43,102.27,29.85a7.7,7.7,0,0,0-7.66,0L55.51,52.43a7.68,7.68,0,0,0-3.84,6.64v45.15a7.68,7.68,0,0,0,3.84,6.64l39.1,22.58a7.7,7.7,0,0,0,7.66,0l39.1-22.58a7.68,7.68,0,0,0,3.84-6.64V59.07A7.69,7.69,0,0,0,141.38,52.43ZM119.6,89.48a1.54,1.54,0,0,1,1.3,1.35l1,9.19a1.53,1.53,0,0,1-1.52,1.7H76.49A1.53,1.53,0,0,1,75,100l1-9.19a1.52,1.52,0,0,1,1.29-1.35l12.31-1.84v-12L77.28,73.81A1.52,1.52,0,0,1,76,72.46l-1-9.2a1.5,1.5,0,0,1,.38-1.18,1.52,1.52,0,0,1,1.14-.51h43.9a1.53,1.53,0,0,1,1.52,1.69l-1,9.2a1.54,1.54,0,0,1-1.3,1.35l-12.31,1.84v12Z"/><path class="cls-1" d="M282.27,63c-14.16,0-25.68,11.13-25.68,24.81s11.52,24.82,25.68,24.82S308,101.46,308,87.78,296.43,63,282.27,63Zm12.92,24.81c0,7.52-5.8,13.64-12.92,13.64s-12.92-6.12-12.92-13.64,5.8-13.64,12.92-13.64S295.19,80.26,295.19,87.78Z"/><rect class="cls-1" x="199.57" y="52.08" width="13.22" height="59.98" rx="0.67" ry="0.67"/><path class="cls-1" d="M253,62.88h0A19.84,19.84,0,0,0,243,65.5a17.26,17.26,0,0,0-5.49,5.18V64a.68.68,0,0,0-.68-.68H225.36a.68.68,0,0,0-.68.68v47.39a.67.67,0,0,0,.68.67h11.51a.67.67,0,0,0,.68-.67V88.53a12.6,12.6,0,0,1,4.15-9.9,14.41,14.41,0,0,1,9.81-3.28c.47,0,1,0,1.44,0h0a.67.67,0,0,0,.47-.18.71.71,0,0,0,.21-.49V63.56a.68.68,0,0,0-.2-.49A.71.71,0,0,0,253,62.88Z"/><path class="cls-1" d="M360.09,68c-3.25-3.41-7.74-5.13-13.34-5.13h0c-7.35.11-12.83,2.66-16.32,7.6V64a.68.68,0,0,0-.67-.68H318.23a.68.68,0,0,0-.67.68v47.39a.67.67,0,0,0,.67.67h11.52a.67.67,0,0,0,.67-.67V88.09a13.67,13.67,0,0,1,3.16-9.3,10.91,10.91,0,0,1,8.58-3.66,9.73,9.73,0,0,1,7.21,2.67A10.06,10.06,0,0,1,352,85.17v26.22a.68.68,0,0,0,.68.67h11.6a.67.67,0,0,0,.68-.67V81.8C365,76,363.33,71.4,360.09,68Z"/><rect class="cls-2" width="412.37" height="163.29"/></g></g></svg>